# xmcd
# Track frame offsets:
# 182
# 13280
# 44215
# 60667
# 71120
# 88182
# 101232
# 118255
# 131817
# 158312
# 177317
# 195870
#
# Disc length: 2716 seconds
# Revision: 0
# Processed by: cddbd v1.4PL0 Copyright (c) Steve Scherf et al.
# Submitted via: VisiTrax 2.9.5.181 - For more info visit www.synapsa.com
#
DISCID=af0a9a0c
DTITLE=Butcher, John - Positively The Blues
DYEAR=1995
DGENRE=
TTITLE0=Cadillac Limousine
TTITLE1=Clean-Up Time
TTITLE2=Taxman Blues
TTITLE3=Union Hall
TTITLE4=Honey Bee
TTITLE5=Here I Am
TTITLE6=20 Years
TTITLE7=I Hate Myself
TTITLE8=At The Feet of the Master
TTITLE9=Two Penny Nail
TTITLE10=High Heel Shoes
TTITLE11=Sail On
EXTD=
EXTT0=
EXTT1=
EXTT2=
EXTT3=
EXTT4=
EXTT5=
EXTT6=
EXTT7=
EXTT8=
EXTT9=
EXTT10=
EXTT11=
PLAYORDER=
